<mxfile host="app.diagrams.net" agent="Mozilla/5.0 (Windows NT 10.0; Win64; x64) AppleWebKit/537.36 (KHTML, like Gecko) Chrome/126.0.0.0 Safari/537.36 OPR/112.0.0.0" version="24.7.7">
  <diagram name="Page-1" id="74e2e168-ea6b-b213-b513-2b3c1d86103e">
    <mxGraphModel dx="1393" dy="771" grid="1" gridSize="10" guides="1" tooltips="1" connect="1" arrows="1" fold="1" page="1" pageScale="1" pageWidth="1100" pageHeight="850" background="none" math="0" shadow="0">
      <root>
        <mxCell id="0" />
        <mxCell id="1" parent="0" />
        <mxCell id="JJG6jmxjGi6Usq8eBqnx-3" value="" style="edgeStyle=orthogonalEdgeStyle;rounded=0;orthogonalLoop=1;jettySize=auto;html=1;" edge="1" parent="1" source="JJG6jmxjGi6Usq8eBqnx-1" target="JJG6jmxjGi6Usq8eBqnx-2">
          <mxGeometry relative="1" as="geometry" />
        </mxCell>
        <mxCell id="JJG6jmxjGi6Usq8eBqnx-1" value="Computer selects a random letter based on a list possibly?" style="rounded=0;whiteSpace=wrap;html=1;" vertex="1" parent="1">
          <mxGeometry x="40" y="10" width="120" height="60" as="geometry" />
        </mxCell>
        <mxCell id="JJG6jmxjGi6Usq8eBqnx-7" value="" style="edgeStyle=orthogonalEdgeStyle;rounded=0;orthogonalLoop=1;jettySize=auto;html=1;" edge="1" parent="1" source="JJG6jmxjGi6Usq8eBqnx-2" target="JJG6jmxjGi6Usq8eBqnx-6">
          <mxGeometry relative="1" as="geometry" />
        </mxCell>
        <mxCell id="JJG6jmxjGi6Usq8eBqnx-2" value="Computer tells the user the length of the word" style="whiteSpace=wrap;html=1;rounded=0;" vertex="1" parent="1">
          <mxGeometry x="240" y="90" width="120" height="60" as="geometry" />
        </mxCell>
        <mxCell id="JJG6jmxjGi6Usq8eBqnx-9" value="" style="edgeStyle=orthogonalEdgeStyle;rounded=0;orthogonalLoop=1;jettySize=auto;html=1;" edge="1" parent="1" source="JJG6jmxjGi6Usq8eBqnx-6" target="JJG6jmxjGi6Usq8eBqnx-8">
          <mxGeometry relative="1" as="geometry" />
        </mxCell>
        <mxCell id="JJG6jmxjGi6Usq8eBqnx-6" value="Maybe put the word in its own list?" style="whiteSpace=wrap;html=1;rounded=0;" vertex="1" parent="1">
          <mxGeometry x="440" y="90" width="120" height="60" as="geometry" />
        </mxCell>
        <mxCell id="JJG6jmxjGi6Usq8eBqnx-11" value="" style="edgeStyle=orthogonalEdgeStyle;rounded=0;orthogonalLoop=1;jettySize=auto;html=1;" edge="1" parent="1" source="JJG6jmxjGi6Usq8eBqnx-8" target="JJG6jmxjGi6Usq8eBqnx-10">
          <mxGeometry relative="1" as="geometry" />
        </mxCell>
        <mxCell id="JJG6jmxjGi6Usq8eBqnx-15" value="" style="edgeStyle=orthogonalEdgeStyle;rounded=0;orthogonalLoop=1;jettySize=auto;html=1;" edge="1" parent="1" source="JJG6jmxjGi6Usq8eBqnx-8" target="JJG6jmxjGi6Usq8eBqnx-14">
          <mxGeometry relative="1" as="geometry" />
        </mxCell>
        <mxCell id="JJG6jmxjGi6Usq8eBqnx-20" value="" style="edgeStyle=orthogonalEdgeStyle;rounded=0;orthogonalLoop=1;jettySize=auto;html=1;" edge="1" parent="1" source="JJG6jmxjGi6Usq8eBqnx-8" target="JJG6jmxjGi6Usq8eBqnx-19">
          <mxGeometry relative="1" as="geometry" />
        </mxCell>
        <mxCell id="JJG6jmxjGi6Usq8eBqnx-8" value="User&#39;s guesses are checked against the letters in the list. Use the .lower() function to ensure equality" style="whiteSpace=wrap;html=1;rounded=0;" vertex="1" parent="1">
          <mxGeometry x="440" y="230" width="150" height="90" as="geometry" />
        </mxCell>
        <mxCell id="JJG6jmxjGi6Usq8eBqnx-17" value="" style="edgeStyle=orthogonalEdgeStyle;rounded=0;orthogonalLoop=1;jettySize=auto;html=1;" edge="1" parent="1" source="JJG6jmxjGi6Usq8eBqnx-10" target="JJG6jmxjGi6Usq8eBqnx-16">
          <mxGeometry relative="1" as="geometry" />
        </mxCell>
        <mxCell id="JJG6jmxjGi6Usq8eBqnx-22" value="" style="edgeStyle=orthogonalEdgeStyle;rounded=0;orthogonalLoop=1;jettySize=auto;html=1;" edge="1" parent="1" source="JJG6jmxjGi6Usq8eBqnx-10" target="JJG6jmxjGi6Usq8eBqnx-21">
          <mxGeometry relative="1" as="geometry" />
        </mxCell>
        <mxCell id="JJG6jmxjGi6Usq8eBqnx-10" value="If correct, reveal the letter positioning to the player" style="whiteSpace=wrap;html=1;rounded=0;" vertex="1" parent="1">
          <mxGeometry x="660" y="230" width="120" height="60" as="geometry" />
        </mxCell>
        <mxCell id="JJG6jmxjGi6Usq8eBqnx-14" value="Keep track of the number of guesses the user has used" style="ellipse;whiteSpace=wrap;html=1;rounded=0;" vertex="1" parent="1">
          <mxGeometry x="260" y="160" width="110" height="90" as="geometry" />
        </mxCell>
        <mxCell id="JJG6jmxjGi6Usq8eBqnx-16" value="Condition to check that max guess numbers have not been exhausted and that the user has not fully guessed the word correctly" style="ellipse;whiteSpace=wrap;html=1;rounded=0;" vertex="1" parent="1">
          <mxGeometry x="640" y="20" width="180" height="150" as="geometry" />
        </mxCell>
        <mxCell id="JJG6jmxjGi6Usq8eBqnx-19" value="Maybe a means of keeping track of the user&#39;s guesses so they don&#39;t guess the same letters and waste guesses." style="ellipse;whiteSpace=wrap;html=1;rounded=0;" vertex="1" parent="1">
          <mxGeometry x="90" y="265" width="170" height="160" as="geometry" />
        </mxCell>
        <mxCell id="JJG6jmxjGi6Usq8eBqnx-21" value="Create a separate list that keeps track of the revealed letters" style="ellipse;whiteSpace=wrap;html=1;rounded=0;" vertex="1" parent="1">
          <mxGeometry x="890" y="200" width="130" height="130" as="geometry" />
        </mxCell>
      </root>
    </mxGraphModel>
  </diagram>
</mxfile>
